0
SECTION
2
HEADER
9
$INSUNITS
70
4
0
ENDSEC
0
SECTION
2
BLOCKS
0
BLOCK
8
0
2
PALLET_BAY
70
0
10
0
20
0
0
LWPOLYLINE
8
0
90
4
70
1
10
0.0
20
0.0
10
2743.2
20
0.0
10
2743.2
20
1219.2
10
0.0
20
1219.2
0
ENDBLK
0
BLOCK
8
0
2
DOCK_DOOR_9FT
70
0
10
0
20
0
0
LINE
8
0
10
-1371.6000000000001
20
0
11
1371.6000000000001
21
0
0
LINE
8
0
10
-1371.6000000000001
20
0
11
-1371.6000000000001
21
457.20000000000005
0
LINE
8
0
10
1371.6000000000001
20
0
11
1371.6000000000001
21
457.20000000000005
0
ENDBLK
0
ENDSEC
0
SECTION
2
ENTITIES
0
LWPOLYLINE
8
A-FLOR-OTLN
90
4
70
1
10
0.0
20
0.0
10
0.0
20
-79248.0
10
57912.0
20
-79248.0
10
57912.0
20
0.0
0
LINE
8
A-WALL
10
0
20
0
11
0
21
-79248
0
LINE
8
A-WALL
10
0
20
-79248
11
57912
21
-79248
0
LINE
8
A-WALL
10
57912
20
-79248
11
57912
21
0
0
LINE
8
A-WALL
10
57912
20
0
11
0
21
0
0
LWPOLYLINE
8
A-AREA-OFFICE
90
4
70
1
10
48768.0
20
-67056.0
10
48768.0
20
-79248.0
10
57912.0
20
-79248.0
10
57912.0
20
-67056.0
0
INSERT
8
RACK-PALLET
2
PALLET_BAY
10
18288
20
-7315.200000000001
50
0
0
INSERT
8
RACK-PALLET
2
PALLET_BAY
10
21031.2
20
-7315.200000000001
50
0
0
INSERT
8
RACK-PALLET
2
PALLET_BAY
10
23774.4
20
-7315.200000000001
50
0
0
INSERT
8
RACK-PALLET
2
PALLET_BAY
10
26517.600000000002
20
-7315.200000000001
50
0
0
INSERT
8
RACK-PALLET
2
PALLET_BAY
10
29260.800000000003
20
-7315.200000000001
50
0
0
INSERT
8
RACK-PALLET
2
PALLET_BAY
10
32004
20
-7315.200000000001
50
0
0
INSERT
8
RACK-PALLET
2
PALLET_BAY
10
34747.200000000004
20
-7315.200000000001
50
0
0
INSERT
8
RACK-PALLET
2
PALLET_BAY
10
37490.4
20
-7315.200000000001
50
0
0
INSERT
8
RACK-PALLET
2
PALLET_BAY
10
40233.6
20
-7315.200000000001
50
0
0
INSERT
8
RACK-PALLET
2
PALLET_BAY
10
42976.8
20
-7315.200000000001
50
0
0
INSERT
8
RACK-PALLET
2
PALLET_BAY
10
18288
20
-8534.4
50
0
0
INSERT
8
RACK-PALLET
2
PALLET_BAY
10
21031.2
20
-8534.4
50
0
0
INSERT
8
RACK-PALLET
2
PALLET_BAY
10
23774.4
20
-8534.4
50
0
0
INSERT
8
RACK-PALLET
2
PALLET_BAY
10
26517.600000000002
20
-8534.4
50
0
0
INSERT
8
RACK-PALLET
2
PALLET_BAY
10
29260.800000000003
20
-8534.4
50
0
0
INSERT
8
RACK-PALLET
2
PALLET_BAY
10
32004
20
-8534.4
50
0
0
INSERT
8
RACK-PALLET
2
PALLET_BAY
10
34747.200000000004
20
-8534.4
50
0
0
INSERT
8
RACK-PALLET
2
PALLET_BAY
10
37490.4
20
-8534.4
50
0
0
INSERT
8
RACK-PALLET
2
PALLET_BAY
10
40233.6
20
-8534.4
50
0
0
INSERT
8
RACK-PALLET
2
PALLET_BAY
10
42976.8
20
-8534.4
50
0
0
INSERT
8
RACK-PALLET
2
PALLET_BAY
10
18288
20
-13106.4
50
0
0
INSERT
8
RACK-PALLET
2
PALLET_BAY
10
21031.2
20
-13106.4
50
0
0
INSERT
8
RACK-PALLET
2
PALLET_BAY
10
23774.4
20
-13106.4
50
0
0
INSERT
8
RACK-PALLET
2
PALLET_BAY
10
26517.600000000002
20
-13106.4
50
0
0
INSERT
8
RACK-PALLET
2
PALLET_BAY
10
29260.800000000003
20
-13106.4
50
0
0
INSERT
8
RACK-PALLET
2
PALLET_BAY
10
32004
20
-13106.4
50
0
0
INSERT
8
RACK-PALLET
2
PALLET_BAY
10
34747.200000000004
20
-13106.4
50
0
0
INSERT
8
RACK-PALLET
2
PALLET_BAY
10
37490.4
20
-13106.4
50
0
0
INSERT
8
RACK-PALLET
2
PALLET_BAY
10
40233.6
20
-13106.4
50
0
0
INSERT
8
RACK-PALLET
2
PALLET_BAY
10
42976.8
20
-13106.4
50
0
0
INSERT
8
RACK-PALLET
2
PALLET_BAY
10
18288
20
-14325.6
50
0
0
INSERT
8
RACK-PALLET
2
PALLET_BAY
10
21031.2
20
-14325.6
50
0
0
INSERT
8
RACK-PALLET
2
PALLET_BAY
10
23774.4
20
-14325.6
50
0
0
INSERT
8
RACK-PALLET
2
PALLET_BAY
10
26517.600000000002
20
-14325.6
50
0
0
INSERT
8
RACK-PALLET
2
PALLET_BAY
10
29260.800000000003
20
-14325.6
50
0
0
INSERT
8
RACK-PALLET
2
PALLET_BAY
10
32004
20
-14325.6
50
0
0
INSERT
8
RACK-PALLET
2
PALLET_BAY
10
34747.200000000004
20
-14325.6
50
0
0
INSERT
8
RACK-PALLET
2
PALLET_BAY
10
37490.4
20
-14325.6
50
0
0
INSERT
8
RACK-PALLET
2
PALLET_BAY
10
40233.6
20
-14325.6
50
0
0
INSERT
8
RACK-PALLET
2
PALLET_BAY
10
42976.8
20
-14325.6
50
0
0
INSERT
8
RACK-PALLET
2
PALLET_BAY
10
18288
20
-18897.600000000002
50
0
0
INSERT
8
RACK-PALLET
2
PALLET_BAY
10
21031.2
20
-18897.600000000002
50
0
0
INSERT
8
RACK-PALLET
2
PALLET_BAY
10
23774.4
20
-18897.600000000002
50
0
0
INSERT
8
RACK-PALLET
2
PALLET_BAY
10
26517.600000000002
20
-18897.600000000002
50
0
0
INSERT
8
RACK-PALLET
2
PALLET_BAY
10
29260.800000000003
20
-18897.600000000002
50
0
0
INSERT
8
RACK-PALLET
2
PALLET_BAY
10
32004
20
-18897.600000000002
50
0
0
INSERT
8
RACK-PALLET
2
PALLET_BAY
10
34747.200000000004
20
-18897.600000000002
50
0
0
INSERT
8
RACK-PALLET
2
PALLET_BAY
10
37490.4
20
-18897.600000000002
50
0
0
INSERT
8
RACK-PALLET
2
PALLET_BAY
10
40233.6
20
-18897.600000000002
50
0
0
INSERT
8
RACK-PALLET
2
PALLET_BAY
10
42976.8
20
-18897.600000000002
50
0
0
INSERT
8
RACK-PALLET
2
PALLET_BAY
10
18288
20
-20116.8
50
0
0
INSERT
8
RACK-PALLET
2
PALLET_BAY
10
21031.2
20
-20116.8
50
0
0
INSERT
8
RACK-PALLET
2
PALLET_BAY
10
23774.4
20
-20116.8
50
0
0
INSERT
8
RACK-PALLET
2
PALLET_BAY
10
26517.600000000002
20
-20116.8
50
0
0
INSERT
8
RACK-PALLET
2
PALLET_BAY
10
29260.800000000003
20
-20116.8
50
0
0
INSERT
8
RACK-PALLET
2
PALLET_BAY
10
32004
20
-20116.8
50
0
0
INSERT
8
RACK-PALLET
2
PALLET_BAY
10
34747.200000000004
20
-20116.8
50
0
0
INSERT
8
RACK-PALLET
2
PALLET_BAY
10
37490.4
20
-20116.8
50
0
0
INSERT
8
RACK-PALLET
2
PALLET_BAY
10
40233.6
20
-20116.8
50
0
0
INSERT
8
RACK-PALLET
2
PALLET_BAY
10
42976.8
20
-20116.8
50
0
0
INSERT
8
RACK-PALLET
2
PALLET_BAY
10
18288
20
-24688.8
50
0
0
INSERT
8
RACK-PALLET
2
PALLET_BAY
10
21031.2
20
-24688.8
50
0
0
INSERT
8
RACK-PALLET
2
PALLET_BAY
10
23774.4
20
-24688.8
50
0
0
INSERT
8
RACK-PALLET
2
PALLET_BAY
10
26517.600000000002
20
-24688.8
50
0
0
INSERT
8
RACK-PALLET
2
PALLET_BAY
10
29260.800000000003
20
-24688.8
50
0
0
INSERT
8
RACK-PALLET
2
PALLET_BAY
10
32004
20
-24688.8
50
0
0
INSERT
8
RACK-PALLET
2
PALLET_BAY
10
34747.200000000004
20
-24688.8
50
0
0
INSERT
8
RACK-PALLET
2
PALLET_BAY
10
37490.4
20
-24688.8
50
0
0
INSERT
8
RACK-PALLET
2
PALLET_BAY
10
40233.6
20
-24688.8
50
0
0
INSERT
8
RACK-PALLET
2
PALLET_BAY
10
42976.8
20
-24688.8
50
0
0
INSERT
8
RACK-PALLET
2
PALLET_BAY
10
18288
20
-25908
50
0
0
INSERT
8
RACK-PALLET
2
PALLET_BAY
10
21031.2
20
-25908
50
0
0
INSERT
8
RACK-PALLET
2
PALLET_BAY
10
23774.4
20
-25908
50
0
0
INSERT
8
RACK-PALLET
2
PALLET_BAY
10
26517.600000000002
20
-25908
50
0
0
INSERT
8
RACK-PALLET
2
PALLET_BAY
10
29260.800000000003
20
-25908
50
0
0
INSERT
8
RACK-PALLET
2
PALLET_BAY
10
32004
20
-25908
50
0
0
INSERT
8
RACK-PALLET
2
PALLET_BAY
10
34747.200000000004
20
-25908
50
0
0
INSERT
8
RACK-PALLET
2
PALLET_BAY
10
37490.4
20
-25908
50
0
0
INSERT
8
RACK-PALLET
2
PALLET_BAY
10
40233.6
20
-25908
50
0
0
INSERT
8
RACK-PALLET
2
PALLET_BAY
10
42976.8
20
-25908
50
0
0
INSERT
8
RACK-PALLET
2
PALLET_BAY
10
18288
20
-30480
50
0
0
INSERT
8
RACK-PALLET
2
PALLET_BAY
10
21031.2
20
-30480
50
0
0
INSERT
8
RACK-PALLET
2
PALLET_BAY
10
23774.4
20
-30480
50
0
0
INSERT
8
RACK-PALLET
2
PALLET_BAY
10
26517.600000000002
20
-30480
50
0
0
INSERT
8
RACK-PALLET
2
PALLET_BAY
10
29260.800000000003
20
-30480
50
0
0
INSERT
8
RACK-PALLET
2
PALLET_BAY
10
32004
20
-30480
50
0
0
INSERT
8
RACK-PALLET
2
PALLET_BAY
10
34747.200000000004
20
-30480
50
0
0
INSERT
8
RACK-PALLET
2
PALLET_BAY
10
37490.4
20
-30480
50
0
0
INSERT
8
RACK-PALLET
2
PALLET_BAY
10
40233.6
20
-30480
50
0
0
INSERT
8
RACK-PALLET
2
PALLET_BAY
10
42976.8
20
-30480
50
0
0
INSERT
8
RACK-PALLET
2
PALLET_BAY
10
18288
20
-31699.2
50
0
0
INSERT
8
RACK-PALLET
2
PALLET_BAY
10
21031.2
20
-31699.2
50
0
0
INSERT
8
RACK-PALLET
2
PALLET_BAY
10
23774.4
20
-31699.2
50
0
0
INSERT
8
RACK-PALLET
2
PALLET_BAY
10
26517.600000000002
20
-31699.2
50
0
0
INSERT
8
RACK-PALLET
2
PALLET_BAY
10
29260.800000000003
20
-31699.2
50
0
0
INSERT
8
RACK-PALLET
2
PALLET_BAY
10
32004
20
-31699.2
50
0
0
INSERT
8
RACK-PALLET
2
PALLET_BAY
10
34747.200000000004
20
-31699.2
50
0
0
INSERT
8
RACK-PALLET
2
PALLET_BAY
10
37490.4
20
-31699.2
50
0
0
INSERT
8
RACK-PALLET
2
PALLET_BAY
10
40233.6
20
-31699.2
50
0
0
INSERT
8
RACK-PALLET
2
PALLET_BAY
10
42976.8
20
-31699.2
50
0
0
LWPOLYLINE
8
SHELVING
90
4
70
1
10
18288.0
20
-42672.0
10
18288.0
20
-43281.6
10
42672.0
20
-43281.6
10
42672.0
20
-42672.0
0
LWPOLYLINE
8
SHELVING
90
4
70
1
10
18288.0
20
-45110.4
10
18288.0
20
-45720.0
10
42672.0
20
-45720.0
10
42672.0
20
-45110.4
0
LWPOLYLINE
8
SHELVING
90
4
70
1
10
18288.0
20
-45720.0
10
18288.0
20
-46329.6
10
42672.0
20
-46329.6
10
42672.0
20
-45720.0
0
LWPOLYLINE
8
SHELVING
90
4
70
1
10
18288.0
20
-48158.4
10
18288.0
20
-48768.0
10
42672.0
20
-48768.0
10
42672.0
20
-48158.4
0
LWPOLYLINE
8
SHELVING
90
4
70
1
10
18288.0
20
-48768.0
10
18288.0
20
-49377.6
10
42672.0
20
-49377.6
10
42672.0
20
-48768.0
0
LWPOLYLINE
8
SHELVING
90
4
70
1
10
18288.0
20
-51206.4
10
18288.0
20
-51816.0
10
42672.0
20
-51816.0
10
42672.0
20
-51206.4
0
LWPOLYLINE
8
SHELVING
90
4
70
1
10
18288.0
20
-51816.0
10
18288.0
20
-52425.6
10
42672.0
20
-52425.6
10
42672.0
20
-51816.0
0
LWPOLYLINE
8
SHELVING
90
4
70
1
10
18288.0
20
-54254.4
10
18288.0
20
-54864.0
10
42672.0
20
-54864.0
10
42672.0
20
-54254.4
0
LWPOLYLINE
8
SHELVING
90
4
70
1
10
18288.0
20
-54864.0
10
18288.0
20
-55473.6
10
42672.0
20
-55473.6
10
42672.0
20
-54864.0
0
LWPOLYLINE
8
SHELVING
90
4
70
1
10
18288.0
20
-57302.4
10
18288.0
20
-57912.0
10
42672.0
20
-57912.0
10
42672.0
20
-57302.4
0
LWPOLYLINE
8
SHELVING
90
4
70
1
10
18288.0
20
-57912.0
10
18288.0
20
-58521.6
10
42672.0
20
-58521.6
10
42672.0
20
-57912.0
0
LWPOLYLINE
8
SHELVING
90
4
70
1
10
18288.0
20
-60350.4
10
18288.0
20
-60960.0
10
42672.0
20
-60960.0
10
42672.0
20
-60350.4
0
INSERT
8
DOCK-DOOR-RECEIVING
2
DOCK_DOOR_9FT
10
0
20
-9144
50
-90
0
INSERT
8
DOCK-DOOR-RECEIVING
2
DOCK_DOOR_9FT
10
0
20
-13716
50
-90
0
INSERT
8
DOCK-DOOR-RECEIVING
2
DOCK_DOOR_9FT
10
0
20
-18288
50
-90
0
INSERT
8
DOCK-DOOR-RECEIVING
2
DOCK_DOOR_9FT
10
0
20
-22860
50
-90
0
INSERT
8
DOCK-DOOR-SHIPPING
2
DOCK_DOOR_9FT
10
0
20
-45720
50
-90
0
INSERT
8
DOCK-DOOR-SHIPPING
2
DOCK_DOOR_9FT
10
0
20
-51816
50
-90
0
INSERT
8
DOCK-DOOR-SHIPPING
2
DOCK_DOOR_9FT
10
0
20
-57912
50
-90
0
INSERT
8
DOCK-DOOR-SHIPPING
2
DOCK_DOOR_9FT
10
0
20
-64008
50
-90
0
TEXT
8
A-ANNO-TEXT
10
0
20
0
40
300
1
SAMPLE DC
0
LWPOLYLINE
8
A-ANNO-DIMS
90
2
70
0
10
-3048.0
20
0.0
10
-3048.0
20
-79248.0
0
ENDSEC
0
EOF
