ISO-10303-21;
HEADER;
FILE_DESCRIPTION(('ViewDefinition [ReferenceView]'),'2;1');
FILE_NAME('sample-dc.ifc','2026-09-13T00:00:00',(''),(''),'digitaltwin_mcp','digitaltwin_mcp','');
FILE_SCHEMA(('IFC4'));
ENDSEC;
DATA;
#1=IFCCARTESIANPOINT((0.,0.,0.));
#2=IFCDIRECTION((0.,0.,1.));
#3=IFCDIRECTION((1.,0.,0.));
#4=IFCAXIS2PLACEMENT3D(#1,#2,#3);
#5=IFCGEOMETRICREPRESENTATIONCONTEXT($,'Model',3,1.E-05,#4,$);
#6=IFCSIUNIT(*,.LENGTHUNIT.,$,.METRE.);
#7=IFCUNITASSIGNMENT((#6));
#8=IFCPROJECT('NnJ0cSVrEd1j9iGqOyW4fD',$,'Sample DC',$,$,$,$,(#5),#7);
#9=IFCLOCALPLACEMENT($,#4);
#10=IFCSITE('vQG0AzZZdhKl9iGqOyW4fD',$,'Site',$,$,#9,$,$,.ELEMENT.,$,$,$,$,$);
#11=IFCLOCALPLACEMENT(#9,#4);
#12=IFCBUILDING('R3D$lUeI0kco9iGqOyW4fD',$,'Sample DC',$,$,#11,$,$,.ELEMENT.,$,$,$);
#13=IFCLOCALPLACEMENT(#11,#4);
#14=IFCBUILDINGSTOREY('zjA$J_j0PovrAiGqOyW4fD',$,'Ground',$,$,#13,$,$,.ELEMENT.,0.);
#15=IFCRELAGGREGATES('kY8$clFNbq3sAiGqOyW4fD',$,$,$,#8,(#10));
#16=IFCRELAGGREGATES('VM6_uVnknrCtAiGqOyW4fD',$,$,$,#10,(#12));
#17=IFCRELAGGREGATES('GB5_AFK6_tLvAiGqOyW4fD',$,$,$,#12,(#14));
#18=IFCCARTESIANPOINT((39.624,-0.1524,0.));
#19=IFCAXIS2PLACEMENT3D(#18,#2,#3);
#20=IFCLOCALPLACEMENT(#13,#19);
#21=IFCCARTESIANPOINT((0.,0.));
#22=IFCAXIS2PLACEMENT2D(#21,$);
#23=IFCRECTANGLEPROFILEDEF(.AREA.,$,#22,79.248,0.3048);
#24=IFCEXTRUDEDAREASOLID(#23,#4,#2,9.);
#25=IFCSHAPEREPRESENTATION(#5,'Body','SweptSolid',(#24));
#26=IFCPRODUCTDEFINITIONSHAPE($,$,(#25));
#27=IFCWALL('wQry1phjw9p6CiGqOyW4fD',$,'South wall',$,'Exterior',#20,#26,$,.STANDARD.);
#28=IFCCARTESIANPOINT((39.624,58.064400000000006,0.));
#29=IFCAXIS2PLACEMENT3D(#28,#2,#3);
#30=IFCLOCALPLACEMENT(#13,#29);
#31=IFCCARTESIANPOINT((0.,0.));
#32=IFCAXIS2PLACEMENT2D(#31,$);
#33=IFCRECTANGLEPROFILEDEF(.AREA.,$,#32,79.248,0.3048);
#34=IFCEXTRUDEDAREASOLID(#33,#4,#2,9.);
#35=IFCSHAPEREPRESENTATION(#5,'Body','SweptSolid',(#34));
#36=IFCPRODUCTDEFINITIONSHAPE($,$,(#35));
#37=IFCWALL('afawtM2LtRHJEiGqOyW4fD',$,'North wall',$,'Exterior',#30,#36,$,.STANDARD.);
#38=IFCCARTESIANPOINT((-0.1524,28.956000000000003,0.));
#39=IFCAXIS2PLACEMENT3D(#38,#2,#3);
#40=IFCLOCALPLACEMENT(#13,#39);
#41=IFCCARTESIANPOINT((0.,0.));
#42=IFCAXIS2PLACEMENT2D(#41,$);
#43=IFCRECTANGLEPROFILEDEF(.AREA.,$,#42,0.3048,57.912000000000006);
#44=IFCEXTRUDEDAREASOLID(#43,#4,#2,9.);
#45=IFCSHAPEREPRESENTATION(#5,'Body','SweptSolid',(#44));
#46=IFCPRODUCTDEFINITIONSHAPE($,$,(#45));
#47=IFCWALL('EuKtkvQzqjlXGjGqOyW4fD',$,'West wall',$,'Exterior',#40,#46,$,.STANDARD.);
#48=IFCCARTESIANPOINT((79.4004,28.956000000000003,0.));
#49=IFCAXIS2PLACEMENT3D(#48,#2,#3);
#50=IFCLOCALPLACEMENT(#13,#49);
#51=IFCCARTESIANPOINT((0.,0.));
#52=IFCAXIS2PLACEMENT2D(#51,$);
#53=IFCRECTANGLEPROFILEDEF(.AREA.,$,#52,0.3048,57.912000000000006);
#54=IFCEXTRUDEDAREASOLID(#53,#4,#2,9.);
#55=IFCSHAPEREPRESENTATION(#5,'Body','SweptSolid',(#54));
#56=IFCPRODUCTDEFINITIONSHAPE($,$,(#55));
#57=IFCWALL('u84raSnbm_DkIjGqOyW4fD',$,'East wall',$,'Exterior',#50,#56,$,.STANDARD.);
#58=IFCCARTESIANPOINT((7.315200000000001,32.004000000000005,0.));
#59=IFCAXIS2PLACEMENT3D(#58,#2,#3);
#60=IFCLOCALPLACEMENT(#13,#59);
#61=IFCCARTESIANPOINT((0.,0.));
#62=IFCAXIS2PLACEMENT2D(#61,$);
#63=IFCRECTANGLEPROFILEDEF(.AREA.,$,#62,2.4384,27.432000000000002);
#64=IFCEXTRUDEDAREASOLID(#63,#4,#2,6.);
#65=IFCSHAPEREPRESENTATION(#5,'Body','SweptSolid',(#64));
#66=IFCPRODUCTDEFINITIONSHAPE($,$,(#65));
#67=IFCBUILDINGELEMENTPROXY('YNqpR$8DjGhyKjGqOyW4fD',$,'Pallet rack',$,'Selective pallet rack double row',#60,#66,$,.ELEMENT.);
#68=IFCCARTESIANPOINT((13.1064,32.004000000000005,0.));
#69=IFCAXIS2PLACEMENT3D(#68,#2,#3);
#70=IFCLOCALPLACEMENT(#13,#69);
#71=IFCCARTESIANPOINT((0.,0.));
#72=IFCAXIS2PLACEMENT2D(#71,$);
#73=IFCRECTANGLEPROFILEDEF(.AREA.,$,#72,2.4384,27.432000000000002);
#74=IFCEXTRUDEDAREASOLID(#73,#4,#2,6.);
#75=IFCSHAPEREPRESENTATION(#5,'Body','SweptSolid',(#74));
#76=IFCPRODUCTDEFINITIONSHAPE($,$,(#75));
#77=IFCBUILDINGELEMENTPROXY('CcamHZWrfY99MkGqOyW4fD',$,'Pallet rack',$,'Selective pallet rack double row',#70,#76,$,.ELEMENT.);
#78=IFCCARTESIANPOINT((18.8976,32.004000000000005,0.));
#79=IFCAXIS2PLACEMENT3D(#78,#2,#3);
#80=IFCLOCALPLACEMENT(#13,#79);
#81=IFCCARTESIANPOINT((0.,0.));
#82=IFCAXIS2PLACEMENT2D(#81,$);
#83=IFCRECTANGLEPROFILEDEF(.AREA.,$,#82,2.4384,27.432000000000002);
#84=IFCEXTRUDEDAREASOLID(#83,#4,#2,6.);
#85=IFCSHAPEREPRESENTATION(#5,'Body','SweptSolid',(#84));
#86=IFCPRODUCTDEFINITIONSHAPE($,$,(#85));
#87=IFCBUILDINGELEMENTPROXY('srKk86tTcqdNOkGqOyW4fD',$,'Pallet rack',$,'Selective pallet rack double row',#80,#86,$,.ELEMENT.);
#88=IFCCARTESIANPOINT((24.6888,32.004000000000005,0.));
#89=IFCAXIS2PLACEMENT3D(#88,#2,#3);
#90=IFCLOCALPLACEMENT(#13,#89);
#91=IFCCARTESIANPOINT((0.,0.));
#92=IFCAXIS2PLACEMENT2D(#91,$);
#93=IFCRECTANGLEPROFILEDEF(.AREA.,$,#92,2.4384,27.432000000000002);
#94=IFCEXTRUDEDAREASOLID(#93,#4,#2,6.);
#95=IFCSHAPEREPRESENTATION(#5,'Body','SweptSolid',(#94));
#96=IFCPRODUCTDEFINITIONSHAPE($,$,(#95));
#97=IFCBUILDINGELEMENTPROXY('W44i_fE5Y65aQkGqOyW4fD',$,'Pallet rack',$,'Selective pallet rack double row',#90,#96,$,.ELEMENT.);
#98=IFCCARTESIANPOINT((30.48,32.004000000000005,0.));
#99=IFCAXIS2PLACEMENT3D(#98,#2,#3);
#100=IFCLOCALPLACEMENT(#13,#99);
#101=IFCCARTESIANPOINT((0.,0.));
#102=IFCAXIS2PLACEMENT2D(#101,$);
#103=IFCRECTANGLEPROFILEDEF(.AREA.,$,#102,2.4384,27.432000000000002);
#104=IFCEXTRUDEDAREASOLID(#103,#4,#2,6.);
#105=IFCSHAPEREPRESENTATION(#5,'Body','SweptSolid',(#104));
#106=IFCPRODUCTDEFINITIONSHAPE($,$,(#105));
#107=IFCBUILDINGELEMENTPROXY('AJqgrCbjVNZnSkGqOyW4fD',$,'Pallet rack',$,'Selective pallet rack double row',#100,#106,$,.ELEMENT.);
#108=IFCCARTESIANPOINT((42.976800000000004,30.48,0.));
#109=IFCAXIS2PLACEMENT3D(#108,#2,#3);
#110=IFCLOCALPLACEMENT(#13,#109);
#111=IFCCARTESIANPOINT((0.,0.));
#112=IFCAXIS2PLACEMENT2D(#111,$);
#113=IFCRECTANGLEPROFILEDEF(.AREA.,$,#112,0.6096,24.384);
#114=IFCEXTRUDEDAREASOLID(#113,#4,#2,2.2);
#115=IFCSHAPEREPRESENTATION(#5,'Body','SweptSolid',(#114));
#116=IFCPRODUCTDEFINITIONSHAPE($,$,(#115));
#117=IFCBUILDINGELEMENTPROXY('qYZdhlzLSf1$UlGqOyW4fD',$,'Pick shelving',$,'Shelving',#110,#116,$,.ELEMENT.);
#118=IFCCARTESIANPOINT((45.415200000000006,30.48,0.));
#119=IFCAXIS2PLACEMENT3D(#118,#2,#3);
#120=IFCLOCALPLACEMENT(#13,#119);
#121=IFCCARTESIANPOINT((0.,0.));
#122=IFCAXIS2PLACEMENT2D(#121,$);
#123=IFCRECTANGLEPROFILEDEF(.AREA.,$,#122,0.6096,24.384);
#124=IFCEXTRUDEDAREASOLID(#123,#4,#2,2.2);
#125=IFCSHAPEREPRESENTATION(#5,'Body','SweptSolid',(#124));
#126=IFCPRODUCTDEFINITIONSHAPE($,$,(#125));
#127=IFCBUILDINGELEMENTPROXY('UoJbYJKyOxVCVlGqOyW4fD',$,'Pick shelving',$,'Shelving',#120,#126,$,.ELEMENT.);
#128=IFCCARTESIANPOINT((46.0248,30.48,0.));
#129=IFCAXIS2PLACEMENT3D(#128,#2,#3);
#130=IFCLOCALPLACEMENT(#13,#129);
#131=IFCCARTESIANPOINT((0.,0.));
#132=IFCAXIS2PLACEMENT2D(#131,$);
#133=IFCRECTANGLEPROFILEDEF(.AREA.,$,#132,0.6096,24.384);
#134=IFCEXTRUDEDAREASOLID(#133,#4,#2,2.2);
#135=IFCSHAPEREPRESENTATION(#5,'Body','SweptSolid',(#134));
#136=IFCPRODUCTDEFINITIONSHAPE($,$,(#135));
#137=IFCBUILDINGELEMENTPROXY('813ZOshaLDzQXlGqOyW4fD',$,'Pick shelving',$,'Shelving',#130,#136,$,.ELEMENT.);
#138=IFCCARTESIANPOINT((48.4632,30.48,0.));
#139=IFCAXIS2PLACEMENT3D(#138,#2,#3);
#140=IFCLOCALPLACEMENT(#13,#139);
#141=IFCCARTESIANPOINT((0.,0.));
#142=IFCAXIS2PLACEMENT2D(#141,$);
#143=IFCRECTANGLEPROFILEDEF(.AREA.,$,#142,0.6096,24.384);
#144=IFCEXTRUDEDAREASOLID(#143,#4,#2,2.2);
#145=IFCSHAPEREPRESENTATION(#5,'Body','SweptSolid',(#144));
#146=IFCPRODUCTDEFINITIONSHAPE($,$,(#145));
#147=IFCBUILDINGELEMENTPROXY('oGpWFP3CHVRdZlGqOyW4fD',$,'Pick shelving',$,'Shelving',#140,#146,$,.ELEMENT.);
#148=IFCCARTESIANPOINT((49.0728,30.48,0.));
#149=IFCAXIS2PLACEMENT3D(#148,#2,#3);
#150=IFCLOCALPLACEMENT(#13,#149);
#151=IFCCARTESIANPOINT((0.,0.));
#152=IFCAXIS2PLACEMENT2D(#151,$);
#153=IFCRECTANGLEPROFILEDEF(.AREA.,$,#152,0.6096,24.384);
#154=IFCEXTRUDEDAREASOLID(#153,#4,#2,2.2);
#155=IFCSHAPEREPRESENTATION(#5,'Body','SweptSolid',(#154));
#156=IFCPRODUCTDEFINITIONSHAPE($,$,(#155));
#157=IFCBUILDINGELEMENTPROXY('SVZU5yQqEmvrbmGqOyW4fD',$,'Pick shelving',$,'Shelving',#150,#156,$,.ELEMENT.);
#158=IFCCARTESIANPOINT((51.5112,30.48,0.));
#159=IFCAXIS2PLACEMENT3D(#158,#2,#3);
#160=IFCLOCALPLACEMENT(#13,#159);
#161=IFCCARTESIANPOINT((0.,0.));
#162=IFCAXIS2PLACEMENT2D(#161,$);
#163=IFCRECTANGLEPROFILEDEF(.AREA.,$,#162,0.6096,24.384);
#164=IFCEXTRUDEDAREASOLID(#163,#4,#2,2.2);
#165=IFCSHAPEREPRESENTATION(#5,'Body','SweptSolid',(#164));
#166=IFCPRODUCTDEFINITIONSHAPE($,$,(#165));
#167=IFCBUILDINGELEMENTPROXY('6kJSyWnSA2N2dmGqOyW4fD',$,'Pick shelving',$,'Shelving',#160,#166,$,.ELEMENT.);
#168=IFCCARTESIANPOINT((52.1208,30.48,0.));
#169=IFCAXIS2PLACEMENT3D(#168,#2,#3);
#170=IFCLOCALPLACEMENT(#13,#169);
#171=IFCCARTESIANPOINT((0.,0.));
#172=IFCAXIS2PLACEMENT2D(#171,$);
#173=IFCRECTANGLEPROFILEDEF(.AREA.,$,#172,0.6096,24.384);
#174=IFCEXTRUDEDAREASOLID(#173,#4,#2,2.2);
#175=IFCSHAPEREPRESENTATION(#5,'Body','SweptSolid',(#174));
#176=IFCPRODUCTDEFINITIONSHAPE($,$,(#175));
#177=IFCBUILDINGELEMENTPROXY('mz3Po3947KrFfmGqOyW4fD',$,'Pick shelving',$,'Shelving',#170,#176,$,.ELEMENT.);
#178=IFCCARTESIANPOINT((54.559200000000004,30.48,0.));
#179=IFCAXIS2PLACEMENT3D(#178,#2,#3);
#180=IFCLOCALPLACEMENT(#13,#179);
#181=IFCCARTESIANPOINT((0.,0.));
#182=IFCAXIS2PLACEMENT2D(#181,$);
#183=IFCRECTANGLEPROFILEDEF(.AREA.,$,#182,0.6096,24.384);
#184=IFCEXTRUDEDAREASOLID(#183,#4,#2,2.2);
#185=IFCSHAPEREPRESENTATION(#5,'Body','SweptSolid',(#184));
#186=IFCPRODUCTDEFINITIONSHAPE($,$,(#185));
#187=IFCBUILDINGELEMENTPROXY('QCpNfcWi3cJThnGqOyW4fD',$,'Pick shelving',$,'Shelving',#180,#186,$,.ELEMENT.);
#188=IFCCARTESIANPOINT((55.168800000000005,30.48,0.));
#189=IFCAXIS2PLACEMENT3D(#188,#2,#3);
#190=IFCLOCALPLACEMENT(#13,#189);
#191=IFCCARTESIANPOINT((0.,0.));
#192=IFCAXIS2PLACEMENT2D(#191,$);
#193=IFCRECTANGLEPROFILEDEF(.AREA.,$,#192,0.6096,24.384);
#194=IFCEXTRUDEDAREASOLID(#193,#4,#2,2.2);
#195=IFCSHAPEREPRESENTATION(#5,'Body','SweptSolid',(#194));
#196=IFCPRODUCTDEFINITIONSHAPE($,$,(#195));
#197=IFCBUILDINGELEMENTPROXY('4SZLW9tK0ungjnGqOyW4fD',$,'Pick shelving',$,'Shelving',#190,#196,$,.ELEMENT.);
#198=IFCCARTESIANPOINT((57.607200000000006,30.48,0.));
#199=IFCAXIS2PLACEMENT3D(#198,#2,#3);
#200=IFCLOCALPLACEMENT(#13,#199);
#201=IFCCARTESIANPOINT((0.,0.));
#202=IFCAXIS2PLACEMENT2D(#201,$);
#203=IFCRECTANGLEPROFILEDEF(.AREA.,$,#202,0.6096,24.384);
#204=IFCEXTRUDEDAREASOLID(#203,#4,#2,2.2);
#205=IFCSHAPEREPRESENTATION(#5,'Body','SweptSolid',(#204));
#206=IFCPRODUCTDEFINITIONSHAPE($,$,(#205));
#207=IFCBUILDINGELEMENTPROXY('khIIMiFyz9FulnGqOyW4fD',$,'Pick shelving',$,'Shelving',#200,#206,$,.ELEMENT.);
#208=IFCCARTESIANPOINT((58.216800000000006,30.48,0.));
#209=IFCAXIS2PLACEMENT3D(#208,#2,#3);
#210=IFCLOCALPLACEMENT(#13,#209);
#211=IFCCARTESIANPOINT((0.,0.));
#212=IFCAXIS2PLACEMENT2D(#211,$);
#213=IFCRECTANGLEPROFILEDEF(.AREA.,$,#212,0.6096,24.384);
#214=IFCEXTRUDEDAREASOLID(#213,#4,#2,2.2);
#215=IFCSHAPEREPRESENTATION(#5,'Body','SweptSolid',(#214));
#216=IFCPRODUCTDEFINITIONSHAPE($,$,(#215));
#217=IFCBUILDINGELEMENTPROXY('Ow2GDGcavRj5nnGqOyW4fD',$,'Pick shelving',$,'Shelving',#210,#216,$,.ELEMENT.);
#218=IFCCARTESIANPOINT((60.6552,30.48,0.));
#219=IFCAXIS2PLACEMENT3D(#218,#2,#3);
#220=IFCLOCALPLACEMENT(#13,#219);
#221=IFCCARTESIANPOINT((0.,0.));
#222=IFCAXIS2PLACEMENT2D(#221,$);
#223=IFCRECTANGLEPROFILEDEF(.AREA.,$,#222,0.6096,24.384);
#224=IFCEXTRUDEDAREASOLID(#223,#4,#2,2.2);
#225=IFCSHAPEREPRESENTATION(#5,'Body','SweptSolid',(#224));
#226=IFCPRODUCTDEFINITIONSHAPE($,$,(#225));
#227=IFCBUILDINGELEMENTPROXY('29oE3pzBsjBJpoHqOyW4fD',$,'Pick shelving',$,'Shelving',#220,#226,$,.ELEMENT.);
#228=IFCCARTESIANPOINT((9.144,0.,0.));
#229=IFCAXIS2PLACEMENT3D(#228,#2,#3);
#230=IFCLOCALPLACEMENT(#13,#229);
#231=IFCCARTESIANPOINT((0.,0.));
#232=IFCAXIS2PLACEMENT2D(#231,$);
#233=IFCRECTANGLEPROFILEDEF(.AREA.,$,#232,2.7432000000000003,0.3048);
#234=IFCEXTRUDEDAREASOLID(#233,#4,#2,3.);
#235=IFCSHAPEREPRESENTATION(#5,'Body','SweptSolid',(#234));
#236=IFCPRODUCTDEFINITIONSHAPE($,$,(#235));
#237=IFCDOOR('iOYCwMLpo$fWroHqOyW4fD',$,'Receiving dock door',$,'Overhead dock door',#230,#236,$,3.,2.7432000000000003,.DOOR.,.SWINGING.,$);
#238=IFCCARTESIANPOINT((13.716000000000001,0.,0.));
#239=IFCAXIS2PLACEMENT3D(#238,#2,#3);
#240=IFCLOCALPLACEMENT(#13,#239);
#241=IFCCARTESIANPOINT((0.,0.));
#242=IFCAXIS2PLACEMENT2D(#241,$);
#243=IFCRECTANGLEPROFILEDEF(.AREA.,$,#242,2.7432000000000003,0.3048);
#244=IFCEXTRUDEDAREASOLID(#243,#4,#2,3.);
#245=IFCSHAPEREPRESENTATION(#5,'Body','SweptSolid',(#244));
#246=IFCPRODUCTDEFINITIONSHAPE($,$,(#245));
#247=IFCDOOR('MdI9mviRlH7jsoHqOyW4fD',$,'Receiving dock door',$,'Overhead dock door',#240,#246,$,3.,2.7432000000000003,.DOOR.,.SWINGING.,$);
#248=IFCCARTESIANPOINT((18.288,0.,0.));
#249=IFCAXIS2PLACEMENT3D(#248,#2,#3);
#250=IFCLOCALPLACEMENT(#13,#249);
#251=IFCCARTESIANPOINT((0.,0.));
#252=IFCAXIS2PLACEMENT2D(#251,$);
#253=IFCRECTANGLEPROFILEDEF(.AREA.,$,#252,2.7432000000000003,0.3048);
#254=IFCEXTRUDEDAREASOLID(#253,#4,#2,3.);
#255=IFCSHAPEREPRESENTATION(#5,'Body','SweptSolid',(#254));
#256=IFCPRODUCTDEFINITIONSHAPE($,$,(#255));
#257=IFCDOOR('0s27dT33hYbxuoHqOyW4fD',$,'Receiving dock door',$,'Overhead dock door',#250,#256,$,3.,2.7432000000000003,.DOOR.,.SWINGING.,$);
#258=IFCCARTESIANPOINT((22.86,0.,0.));
#259=IFCAXIS2PLACEMENT3D(#258,#2,#3);
#260=IFCLOCALPLACEMENT(#13,#259);
#261=IFCCARTESIANPOINT((0.,0.));
#262=IFCAXIS2PLACEMENT2D(#261,$);
#263=IFCRECTANGLEPROFILEDEF(.AREA.,$,#262,2.7432000000000003,0.3048);
#264=IFCEXTRUDEDAREASOLID(#263,#4,#2,3.);
#265=IFCSHAPEREPRESENTATION(#5,'Body','SweptSolid',(#264));
#266=IFCPRODUCTDEFINITIONSHAPE($,$,(#265));
#267=IFCDOOR('g6o5T0Rheq38wpHqOyW4fD',$,'Receiving dock door',$,'Overhead dock door',#260,#266,$,3.,2.7432000000000003,.DOOR.,.SWINGING.,$);
#268=IFCCARTESIANPOINT((45.72,0.,0.));
#269=IFCAXIS2PLACEMENT3D(#268,#2,#3);
#270=IFCLOCALPLACEMENT(#13,#269);
#271=IFCCARTESIANPOINT((0.,0.));
#272=IFCAXIS2PLACEMENT2D(#271,$);
#273=IFCRECTANGLEPROFILEDEF(.AREA.,$,#272,2.7432000000000003,0.3048);
#274=IFCEXTRUDEDAREASOLID(#273,#4,#2,3.);
#275=IFCSHAPEREPRESENTATION(#5,'Body','SweptSolid',(#274));
#276=IFCPRODUCTDEFINITIONSHAPE($,$,(#275));
#277=IFCDOOR('KLY2KZoJa6XMypHqOyW4fD',$,'Shipping dock door',$,'Overhead dock door',#270,#276,$,3.,2.7432000000000003,.DOOR.,.SWINGING.,$);
#278=IFCCARTESIANPOINT((51.816,0.,0.));
#279=IFCAXIS2PLACEMENT3D(#278,#2,#3);
#280=IFCLOCALPLACEMENT(#13,#279);
#281=IFCCARTESIANPOINT((0.,0.));
#282=IFCAXIS2PLACEMENT2D(#281,$);
#283=IFCRECTANGLEPROFILEDEF(.AREA.,$,#282,2.7432000000000003,0.3048);
#284=IFCEXTRUDEDAREASOLID(#283,#4,#2,3.);
#285=IFCSHAPEREPRESENTATION(#5,'Body','SweptSolid',(#284));
#286=IFCPRODUCTDEFINITIONSHAPE($,$,(#285));
#287=IFCDOOR('_aH0A69xXO$Z_pHqOyW4fD',$,'Shipping dock door',$,'Overhead dock door',#280,#286,$,3.,2.7432000000000003,.DOOR.,.SWINGING.,$);
#288=IFCCARTESIANPOINT((57.912000000000006,0.,0.));
#289=IFCAXIS2PLACEMENT3D(#288,#2,#3);
#290=IFCLOCALPLACEMENT(#13,#289);
#291=IFCCARTESIANPOINT((0.,0.));
#292=IFCAXIS2PLACEMENT2D(#291,$);
#293=IFCRECTANGLEPROFILEDEF(.AREA.,$,#292,2.7432000000000003,0.3048);
#294=IFCEXTRUDEDAREASOLID(#293,#4,#2,3.);
#295=IFCSHAPEREPRESENTATION(#5,'Body','SweptSolid',(#294));
#296=IFCPRODUCTDEFINITIONSHAPE($,$,(#295));
#297=IFCDOOR('ep1_1fWZUgTn0qHqOyW4fD',$,'Shipping dock door',$,'Overhead dock door',#290,#296,$,3.,2.7432000000000003,.DOOR.,.SWINGING.,$);
#298=IFCCARTESIANPOINT((64.00800000000001,0.,0.));
#299=IFCAXIS2PLACEMENT3D(#298,#2,#3);
#300=IFCLOCALPLACEMENT(#13,#299);
#301=IFCCARTESIANPOINT((0.,0.));
#302=IFCAXIS2PLACEMENT2D(#301,$);
#303=IFCRECTANGLEPROFILEDEF(.AREA.,$,#302,2.7432000000000003,0.3048);
#304=IFCEXTRUDEDAREASOLID(#303,#4,#2,3.);
#305=IFCSHAPEREPRESENTATION(#5,'Body','SweptSolid',(#304));
#306=IFCPRODUCTDEFINITIONSHAPE($,$,(#305));
#307=IFCDOOR('I2nxtDuBQxw_2qHqOyW4fD',$,'Shipping dock door',$,'Overhead dock door',#300,#306,$,3.,2.7432000000000003,.DOOR.,.SWINGING.,$);
#308=IFCRELCONTAINEDINSPATIALSTRUCTURE('3tmxAzQYdz4$2qHqOyW4fD',$,$,$,(#27,#37,#47,#57,#67,#77,#87,#97,#107,#117,#127,#137,#147,#157,#167,#177,#187,#197,#207,#217,#227,#237,#247,#257,#267,#277,#287,#297,#307),#14);
ENDSEC;
END-ISO-10303-21;
